<?xml version="1.0" standalone="no"?>
<!DOCTYPE svg PUBLIC "-//W3C//DTD SVG 20010904//EN"
 "http://www.w3.org/TR/2001/REC-SVG-20010904/DTD/svg10.dtd">
<svg version="1.0" xmlns="http://www.w3.org/2000/svg"
 width="611.000000pt" height="444.000000pt" viewBox="0 0 611.000000 444.000000"
 preserveAspectRatio="xMidYMid meet">

<g transform="translate(0.000000,444.000000) scale(0.100000,-0.100000)"
fill="#000000" stroke="none">
<path d="M3025 4429 c-300 -34 -646 -196 -880 -413 -38 -35 -382 -507 -1094
-1501 -572 -797 -1039 -1450 -1038 -1451 1 -1 503 -4 1115 -6 l1112 -3 40 45
c83 93 80 74 80 485 0 201 -2 365 -5 365 -3 0 -34 -23 -68 -52 -86 -72 -188
-136 -260 -164 -58 -23 -71 -24 -316 -24 -278 0 -304 5 -309 51 -2 21 121 215
554 870 306 464 585 887 619 939 235 356 691 547 1130 475 50 -8 132 -26 184
-40 52 -14 96 -24 98 -21 7 7 -43 99 -86 156 -58 78 -142 144 -246 195 -110
54 -215 81 -360 95 -124 11 -156 11 -270 -1z"/>
<path d="M3464 3675 c-276 -50 -495 -207 -638 -459 l-43 -76 -7 -942 c-8
-1053 -7 -1032 -78 -1178 -32 -66 -59 -103 -122 -167 l-82 -83 104 0 c300 0
485 103 682 378 54 76 59 86 69 164 7 53 12 412 15 983 5 1004 1 953 76 1111
48 100 144 207 227 252 l58 31 -95 0 c-52 -1 -127 -7 -166 -14z"/>
<path d="M3842 3369 c-29 -15 -50 -35 -65 -63 -21 -40 -22 -51 -25 -435 l-3
-394 33 27 c109 89 202 153 268 185 l75 36 273 3 c241 3 276 2 299 -13 19 -13
24 -23 21 -43 -2 -15 -276 -439 -609 -942 -639 -967 -668 -1006 -818 -1121
-90 -68 -266 -153 -381 -184 -212 -56 -405 -54 -653 9 -72 18 -133 32 -135 31
-1 -1 11 -29 29 -61 136 -260 405 -395 789 -396 288 0 581 93 842 269 205 138
128 39 1275 1637 577 803 1050 1463 1051 1468 2 4 -497 8 -1110 8 l-1113 0
-43 -21z"/>
</g>
</svg>
