<?xml version="1.0" encoding="UTF-8"?>
<svg version="1.1" xmlns="http://www.w3.org/2000/svg" width="1254" height="1254">
<path d="M0 0 C413.82 0 827.64 0 1254 0 C1254 413.82 1254 827.64 1254 1254 C840.18 1254 426.36 1254 0 1254 C0 840.18 0 426.36 0 0 Z " fill="#FDFDFD" transform="translate(0,0)"/>
<path d="M0 0 C3.15468329 1.15070608 4.73298805 2.63137547 7.08747864 5.02294922 C7.95187561 5.89087601 8.81627258 6.7588028 9.7068634 7.6530304 C11.08829529 9.07013557 11.08829529 9.07013557 12.49763489 10.51586914 C13.46404777 11.49229307 14.43143011 12.46775834 15.3997345 13.44230652 C17.94485545 16.0083383 20.47817815 18.58569882 23.00874329 21.16607666 C27.05548561 25.28812424 31.12092063 29.3917565 35.18443298 33.49725914 C36.59724651 34.92766463 38.00537202 36.36269562 39.41340637 37.79780579 C40.27780334 38.67518906 41.14220032 39.55257233 42.03279114 40.45654297 C42.78826233 41.22629959 43.54373352 41.99605621 44.32209778 42.78913879 C46.62752943 44.99842172 49.05634082 46.95506102 51.56013489 48.93383789 C52.63747697 50.11047417 53.68386446 51.31682484 54.68513489 52.55883789 C56.61088403 54.94260305 57.93534043 56.18397492 60.56013489 57.93383789 C60.56013489 58.59383789 60.56013489 59.25383789 60.56013489 59.93383789 C61.51919739 60.33602539 61.51919739 60.33602539 62.49763489 60.74633789 C64.56013489 61.93383789 64.56013489 61.93383789 65.56013489 64.93383789 C66.22013489 64.93383789 66.88013489 64.93383789 67.56013489 64.93383789 C67.56013489 65.59383789 67.56013489 66.25383789 67.56013489 66.93383789 C68.43630211 67.3220295 68.43630211 67.3220295 69.33016968 67.71806335 C71.73392777 69.02858958 73.31356863 70.44632511 75.23957825 72.38623047 C76.29603798 73.44291679 76.29603798 73.44291679 77.37384033 74.52095032 C78.12496597 75.28239853 78.87609161 76.04384674 79.64997864 76.82836914 C80.82228783 78.00492317 80.82228783 78.00492317 82.01828003 79.20524597 C84.51613307 81.71428638 87.00695598 84.23017766 89.49763489 86.74633789 C91.17100164 88.42973934 92.84482468 90.11268737 94.51911926 91.79516602 C97.5993541 94.89172613 100.67694702 97.99085907 103.751297 101.09326172 C108.87874693 106.26589031 114.03766772 111.40659666 119.19816589 116.54621887 C122.34867408 119.68508674 125.4973002 122.82583774 128.64531517 125.967206 C131.02542523 128.34210424 133.40646192 130.71605783 135.78962708 133.08789062 C138.55667254 135.8427412 141.32041811 138.60086633 144.08357239 141.35961914 C144.92858307 142.19946854 145.77359375 143.03931793 146.64421082 143.90461731 C150.93348355 148.19348719 155.07739464 152.54223268 159.01338196 157.15879822 C161.75840112 160.30895739 164.72212044 163.24035981 167.68513489 166.18383789 C168.57652161 167.08102539 168.57652161 167.08102539 169.48591614 167.99633789 C172.70304145 171.20636138 176.00554744 174.09624415 179.56013489 176.93383789 C180.74009801 178.21574167 181.88827484 179.52786829 182.99763489 180.87133789 C185.0988263 183.33716121 187.14835987 185.54376468 189.68513489 187.55883789 C192.80001959 190.13200351 195.06191648 192.77432638 197.56013489 195.93383789 C201.4546853 195.41702131 203.37055885 194.61271254 206.07771301 191.77514648 C206.72188171 191.11130951 207.36605042 190.44747253 208.02973938 189.76351929 C209.05025391 188.68380356 209.05025391 188.68380356 210.09138489 187.58227539 C211.55599477 186.0768395 213.02084582 184.5716382 214.48591614 183.06665039 C216.78190213 180.68347506 219.07276169 178.29561824 221.35847473 175.90258789 C223.56919606 173.59558327 225.79780138 171.30706739 228.02888489 169.01977539 C229.04939941 167.93398697 229.04939941 167.93398697 230.0905304 166.82626343 C230.7346991 166.16873077 231.3788678 165.51119812 232.04255676 164.83374023 C232.60261414 164.24829437 233.16267151 163.66284851 233.73970032 163.05966187 C235.56013489 161.93383789 235.56013489 161.93383789 238.1007843 162.08633423 C241.82129383 163.36843913 243.92680586 166.10214297 246.43513489 168.99633789 C246.96614807 169.59124023 247.49716125 170.18614258 248.04426575 170.79907227 C249.56004473 172.50174715 251.06114545 174.21638943 252.56013489 175.93383789 C253.20337708 176.65442383 253.84661926 177.37500977 254.50935364 178.11743164 C258.55330238 182.67054584 262.44692153 187.35315744 266.3684845 192.01147461 C269.24688075 195.41863634 272.18123032 198.76084477 275.18513489 202.05883789 C278.96172604 206.21575712 282.51269278 210.5176813 286.04450989 214.88305664 C288.98938541 218.45440413 292.01733575 221.94595429 295.06013489 225.43383789 C299.55534221 230.58947852 303.94637153 235.80895213 308.25154114 241.12524414 C310.97357486 244.43682155 313.76149812 247.68699905 316.56013489 250.93383789 C320.09618715 255.03618942 323.58876659 259.16185466 326.99763489 263.37133789 C330.54868119 267.75074762 334.22174025 272.00531577 337.93513489 276.24633789 C342.647751 281.63716599 347.15375443 287.14280268 351.53620911 292.80419922 C354.61430745 296.7683829 357.7949633 300.62264132 361.06013489 304.43383789 C365.78166451 309.95274794 370.28889533 315.6147514 374.75154114 321.34399414 C377.6083558 325.00875639 380.52058609 328.62745569 383.43513489 332.24633789 C388.35659715 338.36686483 393.13561887 344.58764043 397.8865509 350.84106445 C402.312865 356.65114935 406.87537644 362.32907519 411.56013489 367.93383789 C411.23013489 368.59383789 410.90013489 369.25383789 410.56013489 369.93383789 C410.14763489 369.50973633 409.73513489 369.08563477 409.31013489 368.64868164 C405.58377549 364.86409788 401.74896614 361.28532481 397.72810364 357.81665039 C395.31170538 355.71808469 392.93484465 353.57944089 390.56013489 351.43383789 C385.22450852 346.62368988 379.84426608 341.87403552 374.37263489 337.21899414 C368.03934696 331.82625859 361.7855373 326.37589022 355.67829895 320.7277832 C352.39366938 317.69021778 349.05599508 314.72839185 345.67341614 311.80102539 C343.51626338 309.89507526 341.40223657 307.9461633 339.29133606 305.98925781 C335.04503947 302.05456673 330.7732391 298.23778054 326.24763489 294.62133789 C320.20917394 289.76431495 314.62697739 284.46174986 308.98982239 279.15258789 C304.78644347 275.19540366 300.46336625 271.40334035 296.06648254 267.66333008 C288.65969145 261.3603215 281.36044133 254.97872682 274.21638489 248.37915039 C269.64868618 244.1741807 264.95267147 240.12670635 260.23982239 236.08618164 C259.63952209 235.5713623 259.0392218 235.05654297 258.42073059 234.52612305 C257.1868214 233.47015195 255.95099775 232.41641354 254.71321106 231.36499023 C250.78211022 228.01916891 246.97499801 224.58043438 243.30622864 220.94555664 C241.53921743 219.71216541 241.53921743 219.71216541 239.08747864 220.04321289 C236.15614051 221.07620376 234.80940258 222.24426157 232.68513489 224.49633789 C232.06896301 225.13700195 231.45279114 225.77766602 230.81794739 226.43774414 C228.98372821 228.46554008 227.19087819 230.51722316 225.40388489 232.58618164 C221.08303391 237.53559349 216.54025208 242.24957024 211.93513489 246.93383789 C211.10240051 247.80395508 210.26966614 248.67407227 209.41169739 249.57055664 C208.60216614 250.39168945 207.79263489 251.21282227 206.95857239 252.05883789 C206.2333136 252.80391602 205.50805481 253.54899414 204.76081848 254.31665039 C202.10442988 256.26871586 200.78693364 256.41196865 197.56013489 255.93383789 C195.38435364 254.21118164 195.38435364 254.21118164 193.24763489 251.87133789 C190.48727733 248.94726884 187.75849124 246.15257395 184.68513489 243.55883789 C180.37321243 239.86535849 176.42941423 235.83611192 172.46638489 231.77758789 C170.31175867 229.61684926 168.06057608 227.61133154 165.74763489 225.62133789 C160.52898042 221.10244634 155.74965726 216.17234974 150.91560364 211.25024414 C147.55685365 207.85465228 144.18161065 204.5496602 140.56013489 201.43383789 C135.39452744 196.98948537 130.68721196 192.10876701 125.91560364 187.25024414 C121.92474787 183.21561299 117.8436148 179.39412051 113.54255676 175.69360352 C109.34772881 171.9699188 105.48596562 167.8972825 101.56013489 163.89477539 C97.63445074 159.92308713 93.60361418 156.1679431 89.37263489 152.52368164 C86.98897846 150.43284507 84.77149164 148.20496104 82.56013489 145.93383789 C79.64386886 142.98200764 76.71407654 140.1299493 73.56013489 137.43383789 C70.40619324 134.73772648 67.47640092 131.88566814 64.56013489 128.93383789 C61.66421531 126.00265598 58.75770917 123.16980615 55.62263489 120.49633789 C52.27088324 117.63211376 49.15458089 114.57048568 46.06013489 111.43383789 C43.04782383 108.38066809 40.02464587 105.39311378 36.74763489 102.62133789 C32.00422068 98.59931793 27.71535439 94.10980106 23.39485168 89.64355469 C22.81388733 89.05098877 22.23292297 88.45842285 21.63435364 87.84790039 C21.11445862 87.31116699 20.5945636 86.77443359 20.05891418 86.22143555 C18.47277778 84.69453041 18.47277778 84.69453041 15.56013489 83.93383789 C15.63232239 85.17133789 15.70450989 86.40883789 15.77888489 87.68383789 C16.33621236 97.80466762 16.70532181 107.9227963 16.81013489 118.05883789 C16.83140442 119.09524414 16.85267395 120.13165039 16.87458801 121.19946289 C16.88135559 122.6496582 16.88135559 122.6496582 16.88825989 124.12915039 C16.89760559 124.98524902 16.90695129 125.84134766 16.9165802 126.72338867 C16.47833856 129.44108715 15.74914891 130.30836756 13.56013489 131.93383789 C10.72419739 132.42211914 10.72419739 132.42211914 7.56013489 131.93383789 C4.77107239 129.91430664 4.77107239 129.91430664 1.93513489 127.12133789 C0.8860193 126.10924213 -0.16347086 125.09753452 -1.21330261 124.08618164 C-1.74536316 123.5639502 -2.27742371 123.04171875 -2.8256073 122.50366211 C-5.3941521 120.00581833 -8.04239502 117.59738479 -10.68986511 115.18383789 C-11.18599304 114.7271875 -11.68212097 114.27053711 -12.19328308 113.80004883 C-15.75367029 110.52795689 -19.39346379 107.36468777 -23.11174011 104.27368164 C-24.43986511 102.93383789 -24.43986511 102.93383789 -24.43986511 100.93383789 C-28.77679711 102.32812686 -31.13720192 104.33506718 -34.25236511 107.62133789 C-37.2663058 110.73351072 -40.27017555 113.74503004 -43.56486511 116.55883789 C-47.03736489 119.52928951 -50.23130858 122.7063607 -53.43595886 125.96118164 C-56.02232663 128.50721618 -58.75521791 130.85405346 -61.50627136 133.21899414 C-63.39481108 134.89388088 -65.17142159 136.63331376 -66.93986511 138.43383789 C-69.31028869 140.84716506 -71.74722819 143.10655642 -74.31486511 145.30883789 C-77.32454041 147.90017994 -80.15075127 150.60638572 -82.93986511 153.43383789 C-86.3222791 156.86266579 -89.82056954 160.05432307 -93.47502136 163.18774414 C-95.54806835 165.02999464 -97.49422313 166.95785451 -99.43986511 168.93383789 C-101.93926275 171.47198588 -104.47768304 173.87512092 -107.18986511 176.18383789 C-110.78503201 179.26945357 -114.11324917 182.56580749 -117.43986511 185.93383789 C-121.31243026 189.8544945 -125.24778766 193.58787989 -129.44767761 197.16040039 C-131.87924492 199.32497207 -134.15197593 201.61813242 -136.43986511 203.93383789 C-140.60489971 208.14372671 -144.86652984 212.16932392 -149.43986511 215.93383789 C-150.03025574 216.49200195 -150.62064636 217.05016602 -151.22892761 217.62524414 C-154.58698297 219.61278574 -156.57839335 219.48830563 -160.43986511 218.93383789 C-163.65449597 217.33517811 -166.48263387 215.29751715 -169.37736511 213.18383789 C-170.21001892 212.59473633 -171.04267273 212.00563477 -171.90055847 211.39868164 C-178.49070604 206.70766682 -184.96676916 201.86091624 -191.40861511 196.96899414 C-196.46463653 193.14082802 -201.61140416 189.43982465 -206.76872253 185.74975586 C-210.47634507 183.09310342 -214.1518086 180.40815469 -217.77189636 177.63305664 C-218.45437439 177.11493408 -219.13685242 176.59681152 -219.8400116 176.06298828 C-221.12489992 175.084351 -222.40225258 174.09571289 -223.670578 173.09570312 C-226.77185078 170.66035298 -226.77185078 170.66035298 -230.52580261 169.91040039 C-233.11397116 171.29427827 -235.35662707 172.89806352 -237.68986511 174.68383789 C-238.20653748 175.07796875 -238.72320984 175.47209961 -239.25553894 175.87817383 C-244.30904958 179.76491694 -249.23331798 183.81169086 -254.16349792 187.8527832 C-259.01438752 191.8154495 -263.94722183 195.65179206 -268.93986511 199.43383789 C-275.20921344 204.18423146 -281.34262853 209.07118775 -287.42253113 214.06103516 C-292.16394602 217.93688443 -296.99343029 221.6772157 -301.87736511 225.37133789 C-307.70358976 229.77949024 -313.39015262 234.3189591 -319.00236511 238.99633789 C-325.05574194 244.03861954 -331.23122302 248.85175216 -337.56340027 253.5378418 C-342.08077555 256.8888684 -346.50171651 260.33753797 -350.87736511 263.87133789 C-356.81055302 268.66037412 -362.82781103 273.32465789 -368.8971405 277.93969727 C-373.31510452 281.30139752 -377.70515927 284.69549035 -382.07585144 288.1184082 C-390.54028546 294.74523584 -399.12890621 301.17845737 -407.80314636 307.52758789 C-412.96947232 311.31168082 -418.08723406 315.15927141 -423.19035339 319.02807617 C-424.38412849 319.92905652 -425.58361483 320.82253416 -426.78947449 321.70727539 C-428.31354242 322.83995547 -429.79510035 324.02924182 -431.27189636 325.22290039 C-435.64107871 327.5825821 -439.41793984 327.60606659 -444.31486511 327.68383789 C-445.69194641 327.7272229 -445.69194641 327.7272229 -447.09684753 327.77148438 C-455.20877894 328.00289211 -463.32562466 328.03713091 -471.43986511 327.93383789 C-468.95649043 324.06647013 -466.38447105 320.60664827 -463.25236511 317.24633789 C-460.06647065 313.76939923 -457.01917193 310.23448354 -454.06486511 306.55883789 C-450.38650627 302.00895152 -446.51989186 297.70353292 -442.53507996 293.42578125 C-439.44937203 290.09276211 -436.53836301 286.66258272 -433.68986511 283.12133789 C-430.67498993 279.37688437 -427.55898945 275.93458639 -424.10783386 272.59399414 C-421.73432655 270.23160396 -419.57520801 267.70313437 -417.38908386 265.16821289 C-415.10965818 262.55532413 -412.77774158 259.99453768 -410.43986511 257.43383789 C-407.57514696 254.29300233 -404.72800609 251.14283033 -401.93986511 247.93383789 C-399.15172414 244.72484545 -396.30458326 241.57467345 -393.43986511 238.43383789 C-389.98658358 234.64720791 -386.5788746 230.82907469 -383.21720886 226.96118164 C-380.38310891 223.72843906 -377.49301225 220.54638338 -374.61174011 217.35571289 C-372.78242207 215.31582587 -370.98020853 213.25780007 -369.18986511 211.18383789 C-365.30074441 206.71316643 -361.24248865 202.40197361 -357.20085144 198.06982422 C-353.83418174 194.45481352 -350.53724558 190.79613694 -347.31095886 187.05493164 C-344.73593565 184.13585523 -342.08681796 181.28763443 -339.43986511 178.43383789 C-335.65350388 174.35087063 -331.92219294 170.23613877 -328.27970886 166.02368164 C-325.87316356 163.2901323 -323.40683315 160.61269783 -320.93986511 157.93383789 C-317.90096335 154.63356913 -314.87830411 151.32434442 -311.93986511 147.93383789 C-308.57799105 144.05722713 -305.10903839 140.28185886 -301.63615417 136.50512695 C-296.04180547 130.41930493 -290.48490073 124.30086943 -285.06486511 118.05883789 C-281.65778495 114.14700511 -278.15151199 110.32867462 -274.64103699 106.51000977 C-271.60287265 103.20438667 -268.57500776 99.89006242 -265.56486511 96.55883789 C-264.84041199 95.75961914 -264.11595886 94.96040039 -263.36955261 94.13696289 C-261.71371693 92.24649462 -260.19926199 90.31511697 -258.68986511 88.30883789 C-256.43986511 85.93383789 -256.43986511 85.93383789 -254.22892761 85.40258789 C-249.89176383 86.22871433 -247.62461327 89.00870528 -244.56486511 92.05883789 C-243.22793003 93.34951796 -241.89068152 94.63987344 -240.55314636 95.92993164 C-239.87203796 96.59492676 -239.19092957 97.25992188 -238.48918152 97.94506836 C-235.28801842 101.05165337 -232.02015521 104.08518005 -228.75236511 107.12133789 C-227.50235974 108.2879988 -226.25235966 109.45466538 -225.00236511 110.62133789 C-219.84430894 115.42443106 -214.64351937 120.18022941 -209.43986511 124.93383789 C-207.45992598 126.74549535 -205.48097642 128.55823042 -203.50236511 130.37133789 C-203.01115173 130.82130127 -202.51993835 131.27126465 -202.01383972 131.73486328 C-198.82822427 134.65496757 -195.65174915 137.58476273 -192.47941589 140.51928711 C-183.90755761 148.44743882 -175.25492436 156.27606296 -166.43986511 163.93383789 C-163.64794145 162.65916746 -161.5990488 161.3422982 -159.43473816 159.17163086 C-158.87703232 158.61700165 -158.31932648 158.06237244 -157.74472046 157.49093628 C-156.85711784 156.59255539 -156.85711784 156.59255539 -155.95158386 155.67602539 C-155.33016006 155.05414337 -154.70873627 154.43226135 -154.06848145 153.79153442 C-152.75411095 152.47414575 -151.44216887 151.15433038 -150.13249207 149.83227539 C-148.15009608 147.83177643 -146.15996993 145.83924276 -144.16838074 143.84790039 C-142.8873121 142.56190977 -141.60669887 141.27546529 -140.32658386 139.98852539 C-139.74092148 139.40175018 -139.15525909 138.81497498 -138.55184937 138.2104187 C-135.66988158 135.29603246 -132.89501497 132.33326876 -130.22871399 129.2197113 C-126.46687434 124.90481044 -122.48623357 120.85301491 -118.42497253 116.82128906 C-117.65663086 116.05440765 -116.88828918 115.28752625 -116.09666443 114.49740601 C-114.44236422 112.84688696 -112.78691065 111.19752326 -111.13040733 109.54921532 C-108.50991458 106.94156088 -105.89262417 104.33072965 -103.27612305 101.71907043 C-97.72934406 96.18367437 -92.17863331 90.65223138 -86.62736511 85.12133789 C-80.17554071 78.69318647 -73.72541038 72.26335068 -67.27942848 65.82933998 C-64.69888667 63.25528765 -62.11535652 60.68426027 -59.53170776 58.11332703 C-57.95691984 56.54217005 -56.38227125 54.97087339 -54.80778503 53.39941406 C-54.08726456 52.68405991 -53.36674408 51.96870575 -52.62438965 51.23167419 C-51.96703827 50.57439331 -51.30968689 49.91711243 -50.63241577 49.23991394 C-50.06077792 48.6704967 -49.48914007 48.10107946 -48.90017986 47.51440716 C-47.23101353 45.79087709 -47.23101353 45.79087709 -45.43986511 42.93383789 C-44.77986511 42.93383789 -44.11986511 42.93383789 -43.43986511 42.93383789 C-43.06861511 42.00571289 -43.06861511 42.00571289 -42.68986511 41.05883789 C-41.20246143 38.53025162 -40.00308503 38.21544785 -37.43986511 36.93383789 C-36.77057615 35.60181893 -36.10428327 34.26829311 -35.43986511 32.93383789 C-33.98019409 31.19328308 -33.98019409 31.19328308 -32.26286316 29.43457031 C-31.61846786 28.77095993 -30.97407257 28.10734955 -30.31015015 27.42362976 C-29.26640984 26.36713982 -29.26640984 26.36713982 -28.20158386 25.28930664 C-27.48380264 24.56012527 -26.76602142 23.83094391 -26.02648926 23.07966614 C-24.50867066 21.54297947 -22.98794142 20.00916303 -21.46452332 18.47802734 C-19.13235932 16.12637384 -16.82236647 13.75427639 -14.51213074 11.38110352 C-13.03493854 9.89085822 -11.55646536 8.40188137 -10.07658386 6.91430664 C-9.04195259 5.84263496 -9.04195259 5.84263496 -7.98641968 4.74931335 C-7.3325679 4.10146378 -6.67871613 3.4536142 -6.00505066 2.78613281 C-5.43594467 2.20973557 -4.86683868 1.63333832 -4.28048706 1.03947449 C-2.43986511 -0.06616211 -2.43986511 -0.06616211 0 0 Z " fill="#020202" transform="translate(704.4398651123047,230.066162109375)"/>
<path d="M0 0 C0.74717285 0.15065918 1.4943457 0.30131836 2.26416016 0.45654297 C32.77293512 6.80466104 59.9963805 24.20920373 77.61328125 50.2265625 C96.58382525 79.46739293 100.47875355 113.22199123 94 147 C86.93488057 178.3120786 66.85056658 205.67441336 39.95166016 222.78369141 C30.99649615 228.36470555 22.21584662 232.28824209 12 235 C10.67426329 235.36379756 9.3487502 235.72841079 8.0234375 236.09375 C0.09122115 238.25855622 -7.25833794 240.14653846 -15.51171875 240.23828125 C-16.23301468 240.24816574 -16.95431061 240.25805023 -17.69746399 240.26823425 C-54.23914191 240.66583432 -84.23582875 231.39659396 -111.0625 205.3125 C-135.44156007 180.80022103 -144.22815933 148.06219114 -144.32348633 114.2253418 C-144.23272408 103.96019588 -142.90435798 94.80885736 -140 85 C-139.76152344 84.05898438 -139.52304688 83.11796875 -139.27734375 82.1484375 C-131.66037439 53.41376269 -110.48829398 28.65527068 -85.265625 13.73828125 C-81.58884909 11.65516336 -77.83182808 9.77977285 -74 8 C-73.39671875 7.71785645 -72.7934375 7.43571289 -72.171875 7.14501953 C-50.16031748 -2.83190705 -23.55198469 -4.78047723 0 0 Z " fill="#020202" transform="translate(309,736)"/>
<path d="M0 0 C0.66 0.33 1.32 0.66 2 1 C-2.51080377 5.61877514 -7.11308973 10.02230226 -12.01171875 14.2265625 C-14.03764981 16.03358156 -15.92230369 17.92705839 -17.8125 19.875 C-21.6499446 23.76470552 -25.77192752 27.17693087 -30.03125 30.59375 C-32.59000765 32.66769041 -35.09774966 34.78849458 -37.59155273 36.93969727 C-73.93568934 68.20221526 -116.53575263 92.1897916 -159 114 C-159.82725586 114.42796875 -160.65451172 114.8559375 -161.50683594 115.296875 C-168.74999135 119.04172054 -175.90440925 122.51885396 -183.64453125 125.1484375 C-185.78105854 125.92084703 -187.68694411 126.80745824 -189.6875 127.875 C-194.58055697 130.4089045 -199.73814743 132.21432551 -204.90234375 134.109375 C-208.78578372 135.53758552 -212.64659428 137.01830938 -216.50390625 138.515625 C-233.16144925 144.96108643 -249.93115466 150.71835788 -267 156 C-269.05480819 156.64544925 -271.10949987 157.29126954 -273.1640625 157.9375 C-283.00293961 161.0072687 -292.8579024 163.80754263 -302.8762207 166.22973633 C-308.03350741 167.48215411 -313.11253879 168.88695355 -318.1875 170.4375 C-326.17547413 172.8623525 -334.25985514 174.79436769 -342.38452148 176.70336914 C-348.30463527 178.0987075 -354.1939028 179.56264716 -360.06518555 181.15063477 C-387.24706123 188.48432806 -414.90591754 193.70601695 -442.64501953 198.41088867 C-445.43333413 198.9004974 -448.20164383 199.43425699 -450.97265625 200.01171875 C-457.85356946 201.41845165 -464.80371647 202.41537887 -471.75 203.4375 C-472.49065704 203.54671783 -473.23131409 203.65593567 -473.99441528 203.76846313 C-488.13545587 205.83910538 -502.28687632 207.44830959 -516.52685547 208.69140625 C-519.77191984 208.97973476 -523.01239447 209.29956149 -526.25390625 209.625 C-629.36815092 219.30971846 -629.36815092 219.30971846 -662.35546875 196.3671875 C-664.81841837 194.31960468 -664.98843748 193.08258945 -665.4375 189.875 C-664.70559935 183.39245141 -661.26494016 180.01092818 -656.4921875 175.7734375 C-623.22273816 149.3935744 -574.33913591 143.35699304 -533.6875 136.9375 C-532.61503021 136.76635681 -531.54256042 136.59521362 -530.43759155 136.41888428 C-512.55689216 133.5735244 -494.67247578 131.27460297 -476.66650391 129.40527344 C-471.61643236 128.8470687 -466.58551802 128.16846339 -461.55151367 127.48193359 C-456.37281704 126.77919439 -451.18670211 126.14040337 -446 125.5 C-433.13671196 123.89632493 -420.30510408 122.21521926 -407.49609375 120.22265625 C-397.4817445 118.67325708 -387.46079155 117.17479729 -377.43359375 115.7109375 C-376.10969684 115.51737443 -374.78580362 115.32378612 -373.46191406 115.13017273 C-368.07917787 114.34336068 -362.69632625 113.55737288 -357.31274414 112.77636719 C-354.60357395 112.38323996 -351.8946759 111.98832401 -349.18605042 111.59146118 C-346.67548723 111.22367903 -344.16455225 110.85842228 -341.65318298 110.4961853 C-336.0095615 109.66639906 -330.45254617 108.72728016 -324.89802551 107.42776489 C-322.33620777 106.85039874 -319.76715861 106.47997934 -317.1640625 106.140625 C-302.35471626 104.12628988 -287.91711743 101.35660184 -273.36279297 97.98925781 C-268.02374397 96.76853434 -262.66986066 95.61651982 -257.31640625 94.4609375 C-256.28613815 94.23840302 -255.25587006 94.01586853 -254.19438171 93.78659058 C-250.01127372 92.88369842 -245.82796133 91.98177021 -241.64413452 91.08221436 C-238.69459194 90.44752699 -235.74568854 89.80993968 -232.796875 89.171875 C-231.47031639 88.88780289 -231.47031639 88.88780289 -230.11695862 88.59799194 C-224.30723083 87.33821997 -218.64400969 85.88133656 -213 84 C-211.60560336 83.93334624 -210.20830125 83.91461801 -208.8125 83.9375 C-207.554375 83.958125 -206.29625 83.97875 -205 84 C-205 83.34 -205 82.68 -205 82 C-203.77667969 81.70867187 -202.55335938 81.41734375 -201.29296875 81.1171875 C-189.34350439 78.22932036 -177.66883947 74.85665033 -166 71 C-164.71816713 70.57889398 -163.43626115 70.1580105 -162.15429688 69.73730469 C-135.56913362 61.00526606 -108.91984568 52.23244492 -82.95092773 41.78125 C-81.59159259 41.23690355 -80.22882542 40.70108283 -78.86352539 40.171875 C-70.80560743 37.02143603 -62.93573792 33.45559055 -55.0625 29.875 C-54.33078583 29.54230103 -53.59907166 29.20960205 -52.84518433 28.86682129 C-24.63319397 17.20573004 -24.63319397 17.20573004 0 0 Z " fill="#020202" transform="translate(816,440)"/>
<path d="M0 0 C1.0828125 0.26683594 2.165625 0.53367187 3.28125 0.80859375 C22.22877616 5.98237213 39.27563709 17.28896835 54 30 C52.71076019 32.78823237 51.31380469 34.98996602 49.27734375 37.28515625 C48.74302734 37.89302979 48.20871094 38.50090332 47.65820312 39.12719727 C47.09037109 39.76584717 46.52253906 40.40449707 45.9375 41.0625 C44.75792074 42.40520214 43.57954207 43.74895991 42.40234375 45.09375 C41.82339355 45.75503906 41.24444336 46.41632812 40.64794922 47.09765625 C36.99571195 51.31369073 33.50993962 55.66547997 30 60 C28.34091055 62.00652229 26.67208532 64.00428526 25 66 C21.71118111 64.52750609 19.24152408 62.63822626 16.5 60.3125 C-1.4692258 45.83218957 -23.12618256 40.07580408 -46 42 C-64.39377574 44.47511873 -80.01289636 53.56081063 -91.4375 68.125 C-92.31654207 69.39986804 -93.17169677 70.69159745 -94 72 C-94.63808594 72.99 -94.63808594 72.99 -95.2890625 74 C-105.75191648 91.4594864 -109.30502957 113.84102544 -104.71728516 133.71972656 C-103.9013289 136.8466815 -102.97725117 139.9189936 -102 143 C-101.60748047 144.32064453 -101.60748047 144.32064453 -101.20703125 145.66796875 C-100.53927225 147.81143823 -99.79581903 149.90118194 -99 152 C-98.76152344 152.68707031 -98.52304687 153.37414062 -98.27734375 154.08203125 C-92.3332522 169.42608153 -78.75503749 182.33519194 -64 189 C-62.97132813 189.48726562 -61.94265625 189.97453125 -60.8828125 190.4765625 C-46.16695264 196.44966661 -28.25830953 195.71152673 -13 192 C-12.20585693 191.80905762 -11.41171387 191.61811523 -10.59350586 191.42138672 C1.81018199 188.27797675 13.51690429 182.00401995 23.53417969 174.15014648 C26.76145108 171.65727994 27.74918222 171 32 171 C34.0265034 173.03553685 35.77927604 175.01712877 37.5625 177.25 C38.62306966 178.53544925 39.68561252 179.81927273 40.75 181.1015625 C41.28753906 181.75286133 41.82507812 182.40416016 42.37890625 183.07519531 C45.68667044 187.00266713 49.22090987 190.72285492 52.72265625 194.4765625 C54.62299453 196.58225466 56.35064588 198.69631196 58 201 C54.08460274 211.36987032 37.25107206 218.77206858 28 224 C26.89398437 224.63035156 26.89398437 224.63035156 25.765625 225.2734375 C6.61896425 235.50135457 -15.30009435 238.43947564 -36.6875 238.375 C-37.8065976 238.37318726 -37.8065976 238.37318726 -38.94830322 238.37133789 C-71.13873353 238.23017822 -100.44461936 226.54069663 -123.625 203.8125 C-143.56092303 183.63158413 -156.93845621 154.67691519 -157.23828125 126.13671875 C-157.246353 125.38646927 -157.25442474 124.63621979 -157.26274109 123.86323547 C-157.27652154 122.27562726 -157.28727047 120.68799018 -157.29516602 119.1003418 C-157.30658118 117.51138327 -157.32686285 115.92245981 -157.35668945 114.33374023 C-157.93011612 83.68584669 -145.93499814 55.4751913 -125.30859375 33.03125 C-93.71189079 0.2847398 -44.00662797 -11.8756204 0 0 Z " fill="#030303" transform="translate(1031,738)"/>
<path d="M0 0 C0.75498779 0.15758789 1.50997559 0.31517578 2.2878418 0.47753906 C6.51850777 1.43138627 9.63388823 2.69131083 13.3125 5.0625 C15.64315234 6.06873263 17.97671861 7.06823156 20.3125 8.0625 C32.25889061 13.83642679 42.28851895 21.43814396 52.3125 30.0625 C49.96276411 34.32536545 47.01818351 37.86952243 43.8125 41.5 C38.98919309 47.02621205 34.38896021 52.67837858 29.96679688 58.53100586 C27.66694394 61.53003164 25.4849497 63.9842517 22.3125 66.0625 C21.64605469 65.49402344 20.97960937 64.92554688 20.29296875 64.33984375 C0.9139911 48.10486807 -19.34170367 40.12742464 -44.6875 42.0625 C-61.57176804 44.35625411 -75.83049955 52.80423551 -86.9375 65.6875 C-91.66240443 71.95187125 -94.81958619 78.81310324 -97.6875 86.0625 C-98.12449219 87.13242187 -98.56148437 88.20234375 -99.01171875 89.3046875 C-102.00228416 98.22391766 -102.0502236 107.04141025 -102.0625 116.375 C-102.06435303 117.662854 -102.06620605 118.95070801 -102.06811523 120.27758789 C-101.98335964 127.43549929 -101.44458235 134.11912669 -99.6875 141.0625 C-99.48624512 141.88508301 -99.28499023 142.70766602 -99.07763672 143.55517578 C-94.61390589 160.99881706 -84.04499655 175.47743402 -69.01953125 185.19140625 C-63.76325558 188.14305461 -58.44265351 190.29282747 -52.6875 192.0625 C-51.91664063 192.30742188 -51.14578125 192.55234375 -50.3515625 192.8046875 C-33.07823931 197.22908256 -11.33676106 194.54166236 4.3125 186.0625 C5.15554688 185.64355469 5.99859375 185.22460938 6.8671875 184.79296875 C13.40257773 181.43270437 18.98840707 177.4158959 24.68359375 172.8203125 C27.3125 171.0625 27.3125 171.0625 31.3125 171.0625 C33.32388978 173.05571458 35.05000506 174.99059136 36.8125 177.1875 C37.87189724 178.46916229 38.93180875 179.75039964 39.9921875 181.03125 C40.80768066 182.02705078 40.80768066 182.02705078 41.63964844 183.04296875 C43.29716059 185.04398167 44.98740996 187.01064518 46.6953125 188.96875 C47.23865234 189.59249512 47.78199219 190.21624023 48.34179688 190.85888672 C49.38546401 192.05488838 50.43096477 193.24929306 51.47851562 194.44189453 C53.8405875 197.17273886 55.92195264 199.70882694 57.3125 203.0625 C44.94392623 215.0623629 27.70380839 227.24289776 10.75390625 231.39453125 C8.59790013 231.98441452 6.63278283 232.70946392 4.55859375 233.53125 C-8.44696352 238.46054469 -22.77620189 238.33836827 -36.5 238.3125 C-37.5511499 238.31133682 -37.5511499 238.31133682 -38.62353516 238.31015015 C-57.50040226 238.24959774 -57.50040226 238.24959774 -59.6875 236.0625 C-61.30703551 235.76070464 -62.93368575 235.49685995 -64.5625 235.25 C-92.02829639 230.34917112 -117.4397115 211.35031963 -133.40136719 188.94238281 C-152.35628676 161.23682459 -159.10219635 125.43508783 -153.625 92.4375 C-145.95606068 59.22920926 -127.26834018 31.51560396 -98.5402832 13.20825195 C-90.19107977 8.04514591 -90.19107977 8.04514591 -85.75 6.5 C-85.16347656 6.29246094 -84.57695313 6.08492187 -83.97265625 5.87109375 C-83.21855469 5.60425781 -82.46445312 5.33742188 -81.6875 5.0625 C-80.49125 4.59199219 -79.295 4.12148438 -78.0625 3.63671875 C-73.33860647 1.86176953 -68.52245397 0.63326118 -63.625 -0.5625 C-62.76583984 -0.7790625 -61.90667969 -0.995625 -61.02148438 -1.21875 C-40.82002785 -6.21895773 -20.1647255 -4.28125807 0 0 Z " fill="#030303" transform="translate(799.6875,737.9375)"/>
<path d="M0 0 C17.82 0 35.64 0 54 0 C59.75511842 13.81228421 59.75511842 13.81228421 62.12109375 20.23046875 C62.38833755 20.9500325 62.65558136 21.66959625 62.93092346 22.41096497 C63.48902848 23.91523566 64.04598849 25.41993166 64.60180664 26.92504883 C65.43025871 29.16789584 66.2626724 31.40924073 67.09570312 33.65039062 C70.12294495 41.81299928 73.08809874 49.99404088 75.94236755 58.21891785 C77.48487251 62.63934427 79.16508441 66.97882083 80.9375 71.3125 C83.64672938 77.975931 86.04204477 84.72044229 88.39208984 91.51782227 C90.89317564 98.74034555 93.54291763 105.89787181 96.25732422 113.04248047 C97.55493129 116.46266899 98.84003492 119.88754582 100.125 123.3125 C100.50084229 124.31361816 100.50084229 124.31361816 100.88427734 125.33496094 C102.66558292 130.08747006 104.41081953 134.85214289 106.13671875 139.625 C106.9110795 141.75536803 107.70035666 143.87902088 108.5 146 C109.00030124 147.33322033 109.50027112 148.66656503 110 150 C110.34289062 150.91136719 110.68578125 151.82273437 111.0390625 152.76171875 C111.39742187 153.72722656 111.75578125 154.69273437 112.125 155.6875 C112.62386719 157.02361328 112.62386719 157.02361328 113.1328125 158.38671875 C113.97165786 160.91459058 114.53732803 163.37976587 115 166 C115.66 166 116.32 166 117 166 C117.13051758 165.44763672 117.26103516 164.89527344 117.39550781 164.32617188 C120.53177595 152.25736623 124.83545447 140.20154991 129.8515625 128.7890625 C131.74135769 124.19955989 133.19753573 119.46800973 134.69140625 114.73828125 C135.67130693 111.93898288 136.71264999 109.34409076 137.9375 106.65625 C140.08380448 101.92915629 141.7776645 97.10270872 143.4375 92.1875 C145.70099104 85.59045139 148.12118077 79.13427012 150.8828125 72.7265625 C152.47936393 68.83008383 153.74838693 64.8435153 155.046875 60.83984375 C156.16451794 57.50981746 157.46557725 54.28415671 158.796875 51.03515625 C161.35849018 44.57289978 163.6963458 38.02311171 166.08032227 31.49365234 C169.96441969 20.96214952 174.00402687 10.48942948 178 0 C194.83 0 211.66 0 229 0 C225.62585034 11.24716553 225.62585034 11.24716553 223.50390625 16.484375 C223.03404297 17.65097656 222.56417969 18.81757812 222.08007812 20.01953125 C221.57425436 21.26303532 221.06839397 22.50652449 220.5625 23.75 C220.02882841 25.07142549 219.49563536 26.39304432 218.96289062 27.71484375 C217.85877364 30.45322177 216.75262952 33.19076743 215.64501953 35.92773438 C213.60494413 40.9728404 211.58488974 46.02586228 209.56620789 51.07955933 C206.12650462 59.69051113 202.68180835 68.2994655 199.23291016 76.90673828 C194.034608 89.88399092 188.85531502 102.8684608 183.7109375 115.8671875 C183.18427962 117.19745446 182.65760723 118.52771568 182.13092041 119.85797119 C180.01142594 125.21176282 177.89209909 130.56561855 175.77636719 135.92089844 C174.19433601 139.9247322 172.61006532 143.92767303 171.0234375 147.9296875 C170.76801052 148.57400475 170.51258354 149.21832199 170.24941635 149.882164 C166.33344176 159.74941802 162.31431258 169.57074421 158.17831421 179.34811401 C155.5851653 185.49605315 153.22873049 191.66273615 151.1328125 198 C150.2218697 200.41242783 149.23243895 202.56611167 148.0546875 204.84765625 C145.96636315 208.93021881 144.44926185 213.09369593 143 217.4375 C140.97187398 223.48287565 138.60665547 229.13502519 136 235 C121.81 235 107.62 235 93 235 C87.36110027 221.46664066 87.36110027 221.46664066 85 214.5 C82.96964803 208.63403278 80.77257093 202.89368183 78.33203125 197.18359375 C76.73125634 193.35769476 75.23930553 189.49534536 73.75 185.625 C70.79352945 177.95481894 67.71176057 170.34138133 64.54785156 162.75439453 C61.98429603 156.5565374 59.58489064 150.3034325 57.2109375 144.03125 C53.63439072 134.5921281 49.91198255 125.21984927 46.10476685 115.87167358 C45.01623674 113.19890557 43.93056063 110.52499172 42.84545898 107.85083008 C41.3198858 104.09186248 39.79325339 100.33332815 38.265625 96.57519531 C28.86898103 73.45619706 19.50778126 50.32270858 10.21798706 27.16055298 C9.4111781 25.14976697 8.60351096 23.13932506 7.79495239 21.12924194 C6.67323873 18.33978522 5.55490513 15.54899742 4.4375 12.7578125 C4.10294296 11.92757065 3.76838593 11.0973288 3.4236908 10.2419281 C2.96453026 9.09180992 2.96453026 9.09180992 2.49609375 7.91845703 C2.22982178 7.25459991 1.9635498 6.5907428 1.68920898 5.9067688 C0.99308284 3.98086295 0.49667749 1.98670995 0 0 Z " fill="#030303" transform="translate(409,738)"/>
<path d="M0 0 C0.96808594 -0.00773438 1.93617188 -0.01546875 2.93359375 -0.0234375 C21.2132221 0.02563533 37.42093171 7.0251478 50.625 19.6875 C57.17484815 26.30994887 61.67248372 33.80042508 65.5 42.25 C65.78520508 42.86842773 66.07041016 43.48685547 66.36425781 44.12402344 C70.72744919 54.14497946 70.93860442 64.42589835 70.9375 75.1875 C70.9382402 76.19262131 70.9382402 76.19262131 70.93899536 77.2180481 C70.91079654 85.1223112 70.43210645 92.57826852 68.5 100.25 C68.25121094 101.33667969 68.00242187 102.42335938 67.74609375 103.54296875 C62.67577141 121.69325307 51.19260907 136.08380564 35.16796875 145.84765625 C23.70547767 151.87259666 12.47232209 154.61251806 -0.375 154.625 C-1.6755835 154.62729614 -1.6755835 154.62729614 -3.00244141 154.62963867 C-19.91900991 154.33998249 -35.55682932 147.12219138 -47.75 135.5 C-55.66555271 127.1955691 -60.51382081 117.92884168 -64.5 107.25 C-64.79777344 106.47914063 -65.09554687 105.70828125 -65.40234375 104.9140625 C-73.17506886 83.49073062 -70.7927666 58.71761252 -61.5 38.25 C-53.40974726 21.75981978 -40.98437052 10.78377966 -24.42578125 3.22265625 C-16.33690017 0.53356227 -8.47983586 -0.06774836 0 0 Z " fill="#FCFCFC" transform="translate(284.5,778.75)"/>
<path d="M0 0 C0.99 0.495 0.99 0.495 2 1 C1.24074219 1.73605469 0.48148438 2.47210938 -0.30078125 3.23046875 C-1.30495521 4.2158731 -2.30884654 5.20156552 -3.3125 6.1875 C-3.81201172 6.67025391 -4.31152344 7.15300781 -4.82617188 7.65039062 C-6.93388319 9.73018524 -8.80257231 11.64441252 -10.24580383 14.24382019 C-12.63004506 17.98992206 -15.61861302 20.88082258 -18.76635742 23.9934082 C-19.79113945 25.01862831 -19.79113945 25.01862831 -20.83662415 26.06455994 C-23.08819589 28.31474219 -25.3467612 30.55776384 -27.60546875 32.80078125 C-29.17103438 34.36261541 -30.73615804 35.92489273 -32.30085754 37.4875946 C-36.41461127 41.5937225 -40.53433641 45.69380801 -44.65533447 49.79266357 C-48.86173706 53.97858521 -53.06246373 58.17019425 -57.26367188 62.36132812 C-65.50356981 70.57979466 -73.74978744 78.79188889 -82 87 C-82.99 86.67 -83.98 86.34 -85 86 C-84.18845459 85.19369141 -83.37690918 84.38738281 -82.54077148 83.55664062 C-79.49844491 80.5325667 -76.45955409 77.50505938 -73.42163086 74.4765625 C-72.11232826 73.17225416 -70.80212531 71.86884892 -69.4909668 70.56640625 C-67.59440052 68.68212249 -65.70121637 66.79449389 -63.80859375 64.90625 C-63.23225693 64.33507446 -62.6559201 63.76389893 -62.06211853 63.17541504 C-59.19115681 60.3048405 -56.44078971 57.38568154 -53.80078125 54.30078125 C-48.94301384 48.68795508 -43.63746175 43.51361694 -38.37890625 38.28125 C-37.26767877 37.17189167 -36.15667488 36.06230933 -35.04588318 34.95251465 C-32.14655629 32.05697384 -29.24423728 29.16445093 -26.34124756 26.27258301 C-23.36953694 23.31117136 -20.40071733 20.34686446 -17.43164062 17.3828125 C-11.6238918 11.5857319 -5.81297327 5.7918418 0 0 Z " fill="#1B1B1B" transform="translate(628,305)"/>
<path d="M0 0 C6.17876469 2.5172745 10.18705914 8.28251803 14.3125 13.3125 C14.9940918 14.13717773 14.9940918 14.13717773 15.68945312 14.97851562 C16.79525852 16.31712216 17.89795939 17.65829231 19 19 C18.67 19.66 18.34 20.32 18 21 C17.5875 20.57589844 17.175 20.15179687 16.75 19.71484375 C12.93250028 15.83769559 8.98797759 12.19610714 4.8671875 8.64453125 C2.46487962 6.52869105 0.22791166 4.2975339 -2 2 C-1.34 2 -0.68 2 0 2 C0 1.34 0 0.68 0 0 Z " fill="#19191A" transform="translate(1097,579)"/>
<path d="M0 0 C0.66 0.33 1.32 0.66 2 1 C-2.69834783 5.91801085 -7.33507533 10.22338356 -13 14 C-13.33 12.35 -13.66 10.7 -14 9 C-11.71439353 7.4693001 -9.42237333 5.95034956 -7.125 4.4375 C-6.14853516 3.78104492 -6.14853516 3.78104492 -5.15234375 3.11132812 C-3.47374503 2.01245164 -1.73976613 0.9992182 0 0 Z " fill="#242424" transform="translate(816,440)"/>
<path d="M0 0 C0.33 0 0.66 0 1 0 C2.25641026 6.28205128 2.25641026 6.28205128 1.0625 9.625 C-0.33233189 14.05564247 -0.4580654 18.25647605 -0.625 22.875 C-0.66367187 23.75414062 -0.70234375 24.63328125 -0.7421875 25.5390625 C-0.83581034 27.69238793 -0.91896459 29.84616414 -1 32 C-1.33 32 -1.66 32 -2 32 C-2.41277905 9.19872014 -2.41277905 9.19872014 0 0 Z " fill="#5C5A5B" transform="translate(926,833)"/>
<path d="M0 0 C-1.47721422 3.45201639 -3.43794001 5.64961936 -6.125 8.25 C-6.84945312 8.95640625 -7.57390625 9.6628125 -8.3203125 10.390625 C-8.87460937 10.92171875 -9.42890625 11.4528125 -10 12 C-10.99 11.67 -11.98 11.34 -13 11 C-11.21427748 9.16052663 -9.42197551 7.32842259 -7.625 5.5 C-7.11710938 4.97535156 -6.60921875 4.45070313 -6.0859375 3.91015625 C-2.2265625 0 -2.2265625 0 0 0 Z " fill="#0D0E0E" transform="translate(556,380)"/>
<path d="M0 0 C0.66 0.33 1.32 0.66 2 1 C-2.11201083 6.26851387 -6.93563395 11.96781697 -13 15 C-11.38989473 10.92623969 -8.46177729 8.23492931 -5.375 5.25 C-4.859375 4.74339844 -4.34375 4.23679687 -3.8125 3.71484375 C-2.54616661 2.47196098 -1.2736856 1.23534724 0 0 Z " fill="#171717" transform="translate(914,763)"/>
<path d="M0 0 C1.32 0 2.64 0 4 0 C6.140625 2.1875 6.140625 2.1875 8.25 5 C8.95640625 5.928125 9.6628125 6.85625 10.390625 7.8125 C10.92171875 8.534375 11.4528125 9.25625 12 10 C11.67 10.66 11.34 11.32 11 12 C10.54109375 11.52949219 10.0821875 11.05898438 9.609375 10.57421875 C5.77414308 6.66905586 5.77414308 6.66905586 1.5625 3.1875 C1.046875 2.795625 0.53125 2.40375 0 2 C0 1.34 0 0.68 0 0 Z " fill="#2C2C2C" transform="translate(1104,588)"/>
<path d="M0 0 C-1.47703954 3.85205198 -3.48702291 5.25475324 -7 7.3125 C-7.886875 7.84488281 -8.77375 8.37726562 -9.6875 8.92578125 C-10.450625 9.28027344 -11.21375 9.63476562 -12 10 C-12.66 9.67 -13.32 9.34 -14 9 C-12.04594482 7.49412261 -10.08718716 5.99521356 -8.125 4.5 C-7.56941406 4.07074219 -7.01382812 3.64148438 -6.44140625 3.19921875 C-2.2265625 0 -2.2265625 0 0 0 Z " fill="#E6E5E7" transform="translate(290,543)"/>
<path d="M0 0 C-3.79265048 2.67716504 -6.35066514 3.60643498 -11 3 C-12.6796875 1.4765625 -12.6796875 1.4765625 -14 0 C-12.2300132 -0.19532961 -10.45895721 -0.38098882 -8.6875 -0.5625 C-7.70136719 -0.66691406 -6.71523438 -0.77132812 -5.69921875 -0.87890625 C-3 -1 -3 -1 0 0 Z " fill="#161616" transform="translate(361,568)"/>
<path d="M0 0 C0.66 0.33 1.32 0.66 2 1 C0.625 2.5 0.625 2.5 -1 4 C-1.66 4 -2.32 4 -3 4 C-3.144375 4.639375 -3.28875 5.27875 -3.4375 5.9375 C-4 8 -4 8 -5 9 C-6.66617115 9.04063832 -8.33388095 9.042721 -10 9 C-6.83047153 5.73991357 -3.60062011 2.77762123 0 0 Z " fill="#E4E3E4" transform="translate(301,533)"/>
<path d="M0 0 C0.66 0.33 1.32 0.66 2 1 C1.57781184 2.6498275 1.13675575 4.29483665 0.6875 5.9375 C0.44386719 6.85402344 0.20023438 7.77054688 -0.05078125 8.71484375 C-0.36402344 9.46894531 -0.67726563 10.22304688 -1 11 C-1.99 11.33 -2.98 11.66 -4 12 C-3.52309796 10.37433394 -3.04340334 8.74948689 -2.5625 7.125 C-2.29566406 6.22007812 -2.02882813 5.31515625 -1.75390625 4.3828125 C-1 2 -1 2 0 0 Z " fill="#E6E5E6" transform="translate(589,861)"/>
<path d="M0 0 C-3.18382329 2.81645906 -5.75534029 3.72317437 -10 4 C-10.66 3.34 -11.32 2.68 -12 2 C-10.56656 1.46809459 -9.12804633 0.94984742 -7.6875 0.4375 C-6.48673828 0.00244141 -6.48673828 0.00244141 -5.26171875 -0.44140625 C-3 -1 -3 -1 0 0 Z " fill="#2B2B2B" transform="translate(956,742)"/>
<path d="M0 0 C2 4 2 4 1.125 6.75 C0.75375 7.4925 0.3825 8.235 0 9 C-0.99 9 -1.98 9 -3 9 C-2.01 6.03 -1.02 3.06 0 0 Z " fill="#CBCACB" transform="translate(557,940)"/>
<path d="M0 0 C0.66 0.33 1.32 0.66 2 1 C1.47599609 1.70576172 1.47599609 1.70576172 0.94140625 2.42578125 C0.48636719 3.04839844 0.03132812 3.67101562 -0.4375 4.3125 C-0.88996094 4.92738281 -1.34242188 5.54226563 -1.80859375 6.17578125 C-3.17336308 8.09677101 -3.17336308 8.09677101 -4 11 C-4.66 11 -5.32 11 -6 11 C-4.74194623 6.49197399 -3.09592835 3.5087188 0 0 Z " fill="#D6D6D7" transform="translate(712,804)"/>
<path d="M0 0 C0.33 0.66 0.66 1.32 1 2 C-0.98 4.31 -2.96 6.62 -5 9 C-5.66 8.34 -6.32 7.68 -7 7 C-4.69 4.69 -2.38 2.38 0 0 Z " fill="#E9E8E9" transform="translate(948,796)"/>
<path d="M0 0 C2.64 1.98 5.28 3.96 8 6 C7.01 6.66 6.02 7.32 5 8 C3.02 5.69 1.04 3.38 -1 1 C-0.67 0.67 -0.34 0.34 0 0 Z " fill="#0C0C0C" transform="translate(896,477)"/>
<path d="M0 0 C5.28 0.33 10.56 0.66 16 1 C16 1.33 16 1.66 16 2 C7.585 2.495 7.585 2.495 -1 3 C-0.67 2.01 -0.34 1.02 0 0 Z " fill="#141514" transform="translate(587,739)"/>
<path d="M0 0 C0.33 0 0.66 0 1 0 C2.0070238 5.03511899 1.97387813 8.23947038 0 13 C-0.33 13 -0.66 13 -1 13 C-1.07654536 8.48382401 -1.10228696 4.40914783 0 0 Z " fill="#AAA9AB" transform="translate(926,833)"/>
<path d="M0 0 C1.125 1.6875 1.125 1.6875 2 4 C1.125 6.75 1.125 6.75 0 9 C-0.66 8.67 -1.32 8.34 -2 8 C-1.47731534 5.23723823 -0.89130413 2.6739124 0 0 Z " fill="#D6D5D6" transform="translate(567,915)"/>
<path d="M0 0 C0.33 0 0.66 0 1 0 C1 2.97 1 5.94 1 9 C0.01 9.495 0.01 9.495 -1 10 C-2.31223496 6.06329512 -1.24296256 3.87511856 0 0 Z " fill="#282828" transform="translate(565,796)"/>
<path d="M0 0 C0.66 0.33 1.32 0.66 2 1 C0.35 2.65 -1.3 4.3 -3 6 C-3.99 5.67 -4.98 5.34 -6 5 C-4.02 3.35 -2.04 1.7 0 0 Z " fill="#E2E2E3" transform="translate(955,790)"/>
<path d="M0 0 C-0.33 0.99 -0.66 1.98 -1 3 C-3.5625 4.1875 -3.5625 4.1875 -6 5 C-6.66 4.34 -7.32 3.68 -8 3 C-2.25 0 -2.25 0 0 0 Z " fill="#D9D9DA" transform="translate(968,784)"/>
<path d="M0 0 C0.66 0.66 1.32 1.32 2 2 C0.35 3.65 -1.3 5.3 -3 7 C-3 3 -3 3 -1.5 1.25 C-1.005 0.8375 -0.51 0.425 0 0 Z " fill="#EAEAEA" transform="translate(268,513)"/>
</svg>
